<svg id="SvgjsSvg1006" width="311" height="321.99998474121094" xmlns="http://www.w3.org/2000/svg" version="1.1" xmlns:xlink="http://www.w3.org/1999/xlink" xmlns:svgjs="http://svgjs.com/svgjs"><defs id="SvgjsDefs1007"><marker id="SvgjsMarker1034" markerWidth="14" markerHeight="10" refX="10" refY="5" viewBox="0 0 14 10" orient="auto" markerUnits="userSpaceOnUse" stroke-dasharray="0,0"><path id="SvgjsPath1035" d="M0,0 L14,5 L0,10 L0,0" fill="#323232" stroke="#323232" stroke-width="1"></path></marker><marker id="SvgjsMarker1038" markerWidth="14" markerHeight="10" refX="10" refY="5" viewBox="0 0 14 10" orient="auto" markerUnits="userSpaceOnUse" stroke-dasharray="0,0"><path id="SvgjsPath1039" d="M0,0 L14,5 L0,10 L0,0" fill="#323232" stroke="#323232" stroke-width="1"></path></marker></defs><g id="SvgjsG1008" transform="translate(25.0032958984375,25.009872436523438)"><path id="SvgjsPath1009" d="M 0 4Q 0 0 4 0L 257 0Q 261 0 261 4L 261 58Q 261 62 257 62L 4 62Q 0 62 0 58Z" stroke="rgba(50,50,50,1)" stroke-width="2" fill-opacity="1" fill="#ffffff"></path><g id="SvgjsG1010"><text id="SvgjsText1011" font-family="宋体" text-anchor="middle" font-size="14px" width="241px" fill="#323232" font-weight="400" align="middle" lineHeight="125%" anchor="middle" family="宋体" size="14px" weight="400" font-style="" opacity="1" y="10.75" transform="rotate(0)"><tspan id="SvgjsTspan1012" dy="17" x="130.5"><tspan id="SvgjsTspan1013" style="text-decoration:;">每个集群选择一个本地客户端请求，使</tspan></tspan><tspan id="SvgjsTspan1014" dy="17" x="130.5"><tspan id="SvgjsTspan1015" style="text-decoration:;">用Pbft本地复制并生成提交证明</tspan></tspan></text></g></g><g id="SvgjsG1016" transform="translate(25.0032958984375,130.00987243652344)"><path id="SvgjsPath1017" d="M 0 4Q 0 0 4 0L 257 0Q 261 0 261 4L 261 58Q 261 62 257 62L 4 62Q 0 62 0 58Z" stroke="rgba(50,50,50,1)" stroke-width="2" fill-opacity="1" fill="#ffffff"></path><g id="SvgjsG1018"><text id="SvgjsText1019" font-family="宋体" text-anchor="middle" font-size="14px" width="241px" fill="#323232" font-weight="400" align="middle" lineHeight="125%" anchor="middle" family="宋体" size="14px" weight="400" font-style="" opacity="1" y="10.75" transform="rotate(0)"><tspan id="SvgjsTspan1020" dy="17" x="130.5"><tspan id="SvgjsTspan1021" style="text-decoration:;">每个集群的主节点与其他集群共享生成</tspan></tspan><tspan id="SvgjsTspan1022" dy="17" x="130.5"><tspan id="SvgjsTspan1023" style="text-decoration:;">的提交证明</tspan></tspan></text></g></g><g id="SvgjsG1024" transform="translate(25.0032958984375,235.00987243652344)"><path id="SvgjsPath1025" d="M 0 4Q 0 0 4 0L 257 0Q 261 0 261 4L 261 58Q 261 62 257 62L 4 62Q 0 62 0 58Z" stroke="rgba(50,50,50,1)" stroke-width="2" fill-opacity="1" fill="#ffffff"></path><g id="SvgjsG1026"><text id="SvgjsText1027" font-family="宋体" text-anchor="middle" font-size="14px" width="241px" fill="#323232" font-weight="400" align="middle" lineHeight="125%" anchor="middle" family="宋体" size="14px" weight="400" font-style="" opacity="1" y="10.75" transform="rotate(0)"><tspan id="SvgjsTspan1028" dy="17" x="130.5"><tspan id="SvgjsTspan1029" style="text-decoration:;">对收到的经过验证的客户端请求排序并</tspan></tspan><tspan id="SvgjsTspan1030" dy="17" x="130.5"><tspan id="SvgjsTspan1031" style="text-decoration:;">执行，然后通知本地客户端</tspan></tspan></text></g></g><g id="SvgjsG1032"><path id="SvgjsPath1033" d="M155.5032958984375 88.00987243652344L155.5032958984375 108.50987243652344L155.5032958984375 108.50987243652344L155.5032958984375 126.40987243652344" stroke="#323232" stroke-width="2" fill="none" marker-end="url(#SvgjsMarker1034)"></path></g><g id="SvgjsG1036"><path id="SvgjsPath1037" d="M155.5032958984375 193.00987243652344L155.5032958984375 213.50987243652344L155.5032958984375 213.50987243652344L155.5032958984375 231.40987243652341" stroke="#323232" stroke-width="2" fill="none" marker-end="url(#SvgjsMarker1038)"></path></g></svg>